<svg width="256" height="256" viewBox="0 0 16 16" xmlns="http://www.w3.org/2000/svg"><rect x="0" y="0" width="16" height="16" rx="8" fill="none"/><svg xmlns="http://www.w3.org/2000/svg" viewBox="0 0 16 16" fill="#000000" x="0" y="0" width="16" height="16"><path fill="#000000" d="M2 4a2 2 0 0 1 2-2h6a2 2 0 0 1 2 2v6a2 2 0 0 1-2 2H4a2 2 0 0 1-2-2V4Zm4.5 2.5h-2a.5.5 0 0 0 0 1h2v2a.5.5 0 0 0 1 0v-2h2a.5.5 0 1 0 0-1h-2v-2a.5.5 0 0 0-1 0v2Zm4 6.5a2.5 2.5 0 0 0 2.5-2.5V3.268A2 2 0 0 1 14 5v5.5a3.5 3.5 0 0 1-3.5 3.5H5a2 2 0 0 1-1.732-1H10.5Z"/></svg></svg>